<svg width="120" height="120" viewBox="0 0 120 120" xmlns="http://www.w3.org/2000/svg">
  <defs>
    <linearGradient id="way-grad" x1="0%" y1="0%" x2="100%" y2="100%">
      <stop offset="0%" style="stop-color:#008B8B;stop-opacity:1" />
      <stop offset="100%" style="stop-color:#87CEEB;stop-opacity:1" />
    </linearGradient>
  </defs>

  <!-- Background circle -->
  <circle cx="60" cy="60" r="55" fill="url(#way-grad)" />

  <!-- Compass rose outer circle -->
  <circle cx="60" cy="60" r="40" fill="none" stroke="#FFFFFF" stroke-width="3" />

  <!-- Compass cardinal points (N, S, E, W) -->
  <path d="M60 20 L65 35 L60 32 L55 35 Z" fill="#FFFFFF" />
  <path d="M60 100 L65 85 L60 88 L55 85 Z" fill="#FFFFFF" opacity="0.7" />
  <path d="M100 60 L85 65 L88 60 L85 55 Z" fill="#FFFFFF" opacity="0.7" />
  <path d="M20 60 L35 65 L32 60 L35 55 Z" fill="#FFFFFF" opacity="0.7" />

  <!-- Compass intercardinal points -->
  <path d="M85 35 L75 40 L78 38 L76 35 Z" fill="#FFFFFF" opacity="0.5" />
  <path d="M35 35 L45 40 L42 38 L44 35 Z" fill="#FFFFFF" opacity="0.5" />
  <path d="M85 85 L75 80 L78 82 L76 85 Z" fill="#FFFFFF" opacity="0.5" />
  <path d="M35 85 L45 80 L42 82 L44 85 Z" fill="#FFFFFF" opacity="0.5" />

  <!-- Center star -->
  <circle cx="60" cy="60" r="8" fill="#FFFFFF" />
  <polygon points="60,52 61,58 67,58 62,62 64,68 60,64 56,68 58,62 53,58 59,58" fill="#008B8B" />

  <!-- Wave pattern at bottom -->
  <path d="M25 85 Q35 80 45 85 T65 85 T85 85 T95 85" fill="none" stroke="#FFFFFF" stroke-width="2" opacity="0.6" />
</svg>
