<svg width="120" height="120" viewBox="0 0 120 120" xmlns="http://www.w3.org/2000/svg">
  <defs>
    <linearGradient id="ngd-grad" x1="0%" y1="0%" x2="100%" y2="100%">
      <stop offset="0%" style="stop-color:#B0E0E6;stop-opacity:1" />
      <stop offset="100%" style="stop-color:#C0C0C0;stop-opacity:1" />
    </linearGradient>
  </defs>

  <!-- Background circle -->
  <circle cx="60" cy="60" r="55" fill="url(#ngd-grad)" />

  <!-- Shield outline -->
  <path d="M60 25 L85 40 L85 70 L60 95 L35 70 L35 40 Z" fill="none" stroke="#2C3E50" stroke-width="3" />
  <path d="M60 30 L80 42 L80 68 L60 88 L40 68 L40 42 Z" fill="#FFFFFF" opacity="0.3" />

  <!-- Fortress/battlements -->
  <rect x="45" y="45" width="6" height="12" fill="#2C3E50" />
  <rect x="57" y="45" width="6" height="12" fill="#2C3E50" />
  <rect x="69" y="45" width="6" height="12" fill="#2C3E50" />
  <rect x="48" y="40" width="24" height="5" fill="#2C3E50" />

  <!-- Snowflake pattern -->
  <line x1="60" y1="60" x2="60" y2="50" stroke="#4A90E2" stroke-width="2" />
  <line x1="60" y1="60" x2="60" y2="70" stroke="#4A90E2" stroke-width="2" />
  <line x1="60" y1="60" x2="68" y2="60" stroke="#4A90E2" stroke-width="2" />
  <line x1="60" y1="60" x2="52" y2="60" stroke="#4A90E2" stroke-width="2" />
  <line x1="60" y1="60" x2="66" y2="54" stroke="#4A90E2" stroke-width="2" />
  <line x1="60" y1="60" x2="54" y2="66" stroke="#4A90E2" stroke-width="2" />
  <line x1="60" y1="60" x2="66" y2="66" stroke="#4A90E2" stroke-width="2" />
  <line x1="60" y1="60" x2="54" y2="54" stroke="#4A90E2" stroke-width="2" />

  <!-- North indicator -->
  <polygon points="60,78 62,85 60,83 58,85" fill="#2C3E50" />
  <text x="60" y="93" font-family="Arial, sans-serif" font-size="8" font-weight="bold" fill="#2C3E50" text-anchor="middle">N</text>
</svg>
