<svg width="120" height="120" viewBox="0 0 120 120" xmlns="http://www.w3.org/2000/svg">
  <defs>
    <linearGradient id="ash-grad" x1="0%" y1="0%" x2="100%" y2="100%">
      <stop offset="0%" style="stop-color:#8B4513;stop-opacity:1" />
      <stop offset="100%" style="stop-color:#D2B48C;stop-opacity:1" />
    </linearGradient>
  </defs>

  <!-- Background circle -->
  <circle cx="60" cy="60" r="55" fill="url(#ash-grad)" />

  <!-- Hands holding (community) -->
  <path d="M30 55 L25 60 L30 70 L38 68 L35 60 Z" fill="#F5DEB3" stroke="#654321" stroke-width="2" />
  <path d="M90 55 L95 60 L90 70 L82 68 L85 60 Z" fill="#F5DEB3" stroke="#654321" stroke-width="2" />

  <!-- Wheat stalks bundle -->
  <!-- Center stalk -->
  <line x1="60" y1="45" x2="60" y2="75" stroke="#DEB887" stroke-width="3" />
  <path d="M55 48 L60 45 L65 48" fill="none" stroke="#DEB887" stroke-width="2" />
  <path d="M55 52 L60 49 L65 52" fill="none" stroke="#DEB887" stroke-width="2" />
  <path d="M55 56 L60 53 L65 56" fill="none" stroke="#DEB887" stroke-width="2" />

  <!-- Left stalk -->
  <line x1="50" y1="50" x2="52" y2="75" stroke="#DEB887" stroke-width="2" />
  <path d="M45 53 L50 50 L55 53" fill="none" stroke="#DEB887" stroke-width="1.5" />
  <path d="M45 57 L50 54 L55 57" fill="none" stroke="#DEB887" stroke-width="1.5" />

  <!-- Right stalk -->
  <line x1="70" y1="50" x2="68" y2="75" stroke="#DEB887" stroke-width="2" />
  <path d="M65 53 L70 50 L75 53" fill="none" stroke="#DEB887" stroke-width="1.5" />
  <path d="M65 57 L70 54 L75 57" fill="none" stroke="#DEB887" stroke-width="1.5" />

  <!-- Binding -->
  <rect x="55" y="70" width="10" height="4" fill="#654321" rx="1" />

  <!-- Circle of unity -->
  <circle cx="60" cy="60" r="42" fill="none" stroke="#654321" stroke-width="2" opacity="0.4" />
</svg>
