<svg width="120" height="120" viewBox="0 0 120 120" xmlns="http://www.w3.org/2000/svg">
  <defs>
    <linearGradient id="hlx-grad" x1="0%" y1="0%" x2="100%" y2="100%">
      <stop offset="0%" style="stop-color:#00FFFF;stop-opacity:1" />
      <stop offset="100%" style="stop-color:#8B00FF;stop-opacity:1" />
    </linearGradient>
  </defs>

  <!-- Background circle -->
  <circle cx="60" cy="60" r="55" fill="url(#hlx-grad)" />

  <!-- DNA helix structure -->
  <ellipse cx="45" cy="35" rx="8" ry="8" fill="#FFFFFF" />
  <ellipse cx="75" cy="45" rx="8" ry="8" fill="#FFFFFF" />
  <ellipse cx="45" cy="55" rx="8" ry="8" fill="#FFFFFF" />
  <ellipse cx="75" cy="65" rx="8" ry="8" fill="#FFFFFF" />
  <ellipse cx="45" cy="75" rx="8" ry="8" fill="#FFFFFF" />
  <ellipse cx="75" cy="85" rx="8" ry="8" fill="#FFFFFF" />

  <!-- Helix curves -->
  <path d="M45 35 Q60 40 75 45" fill="none" stroke="#FFFFFF" stroke-width="3" />
  <path d="M75 45 Q60 50 45 55" fill="none" stroke="#FFFFFF" stroke-width="3" />
  <path d="M45 55 Q60 60 75 65" fill="none" stroke="#FFFFFF" stroke-width="3" />
  <path d="M75 65 Q60 70 45 75" fill="none" stroke="#FFFFFF" stroke-width="3" />
  <path d="M45 75 Q60 80 75 85" fill="none" stroke="#FFFFFF" stroke-width="3" />

  <!-- Circuit board pattern accents -->
  <rect x="30" y="30" width="4" height="4" fill="#00FFFF" />
  <rect x="86" y="40" width="4" height="4" fill="#00FFFF" />
  <rect x="30" y="50" width="4" height="4" fill="#8B00FF" />
  <rect x="86" y="60" width="4" height="4" fill="#8B00FF" />
  <rect x="30" y="70" width="4" height="4" fill="#00FFFF" />
  <rect x="86" y="80" width="4" height="4" fill="#00FFFF" />
</svg>
